<?xml version="1.0" encoding="UTF-8" standalone="no"?>
<!-- Created with Inkscape (http://www.inkscape.org/) -->

<svg
   xmlns:dc="http://purl.org/dc/elements/1.1/"
   xmlns:cc="http://creativecommons.org/ns#"
   xmlns:rdf="http://www.w3.org/1999/02/22-rdf-syntax-ns#"
   xmlns:svg="http://www.w3.org/2000/svg"
   xmlns="http://www.w3.org/2000/svg"
   xmlns:sodipodi="http://sodipodi.sourceforge.net/DTD/sodipodi-0.dtd"
   xmlns:inkscape="http://www.inkscape.org/namespaces/inkscape"
   width="29.375465mm"
   height="4.8084898mm"
   viewBox="0 0 29.375465 4.8084898"
   version="1.1"
   id="svg8"
   inkscape:version="0.92.2 5c3e80d, 2017-08-06"
   sodipodi:docname="logo.svg">
  <defs
     id="defs2" />
  <sodipodi:namedview
     id="base"
     pagecolor="#ffffff"
     bordercolor="#666666"
     borderopacity="1.0"
     inkscape:pageopacity="0.0"
     inkscape:pageshadow="2"
     inkscape:zoom="5.12"
     inkscape:cx="36.625799"
     inkscape:cy="-10.762578"
     inkscape:document-units="mm"
     inkscape:current-layer="layer1"
     showgrid="false"
     fit-margin-top="0"
     fit-margin-left="0"
     fit-margin-right="0"
     fit-margin-bottom="0"
     inkscape:window-width="1440"
     inkscape:window-height="856"
     inkscape:window-x="0"
     inkscape:window-y="0"
     inkscape:window-maximized="1" />
  <metadata
     id="metadata5">
    <rdf:RDF>
      <cc:Work
         rdf:about="">
        <dc:format>image/svg+xml</dc:format>
        <dc:type
           rdf:resource="http://purl.org/dc/dcmitype/StillImage" />
        <dc:title></dc:title>
      </cc:Work>
    </rdf:RDF>
  </metadata>
  <g
     inkscape:label="Layer 1"
     inkscape:groupmode="layer"
     id="layer1"
     transform="translate(-61.624884,-108.74941)">
    <g
       aria-label="Kyle Nahas"
       style="font-style:normal;font-variant:normal;font-weight:normal;font-stretch:normal;font-size:5.29166651px;line-height:125%;font-family:'HandelGothic BT';-inkscape-font-specification:'HandelGothic BT';letter-spacing:0px;word-spacing:0px;fill:#000000;fill-opacity:1;stroke:none;stroke-width:0.26458332px;stroke-linecap:butt;stroke-linejoin:miter;stroke-opacity:1"
       id="text817">
      <path
         d="m 61.624884,108.74941 h 0.798401 v 1.82417 l 1.496033,-1.82417 h 0.958598 l -1.524455,1.85518 1.539958,1.94303 h -1.02061 l -1.449524,-1.88877 v 1.88877 h -0.798401 z"
         style="stroke-width:0.26458332px"
         id="path819"
         inkscape:connector-curvature="0" />
      <path
         d="m 66.156907,111.93267 h 0.591695 v -2.17299 h 0.73639 v 2.71301 q 0,0.55294 -0.258383,0.81907 -0.258382,0.26614 -0.790649,0.26614 h -1.444356 v -0.56586 h 1.317749 q 0.211873,0 0.325561,-0.10335 0.113688,-0.10077 0.113688,-0.29456 v -0.0465 h -0.651123 q -0.625284,0 -0.891418,-0.24546 -0.266134,-0.24805 -0.266134,-0.82424 v -1.71824 h 0.728638 v 1.6614 q 0,0.31522 0.09302,0.41341 0.0956,0.0982 0.395324,0.0982 z"
         style="stroke-width:0.26458332px"
         id="path821"
         inkscape:connector-curvature="0" />
      <path
         d="m 68.900926,112.54762 h -0.767395 v -3.79821 h 0.767395 z"
         style="stroke-width:0.26458332px"
         id="path823"
         inkscape:connector-curvature="0" />
      <path
         d="m 70.771612,112.54762 q -0.692464,0 -1.049031,-0.3514 -0.353984,-0.35398 -0.353984,-1.04128 0,-0.68729 0.356568,-1.04128 0.356567,-0.35398 1.046447,-0.35398 h 1.07487 v 0.58136 h -0.974101 q -0.400492,0 -0.540018,0.11369 -0.136943,0.11369 -0.147278,0.41082 h 1.661397 v 0.58136 h -1.661397 q 0.01033,0.29973 0.136942,0.41083 0.129192,0.10852 0.545187,0.10852 h 0.979268 v 0.58136 z"
         style="stroke-width:0.26458332px"
         id="path825"
         inkscape:connector-curvature="0" />
      <path
         d="m 74.440639,108.74941 h 1.010274 l 1.555461,2.72851 -0.03876,-2.72851 h 0.816487 v 3.79821 h -0.927592 l -1.632975,-2.87321 0.03617,2.87321 h -0.819072 z"
         style="stroke-width:0.26458332px"
         id="path827"
         inkscape:connector-curvature="0" />
      <path
         d="m 79.515265,111.98693 h 0.922424 v -0.57619 h -0.868164 q -0.258382,0 -0.356567,0.0698 -0.09819,0.0698 -0.09819,0.24288 0,0.14728 0.07751,0.20671 0.0801,0.0568 0.322978,0.0568 z m -0.979268,-2.22725 h 1.508952 q 0.571024,0 0.860412,0.26355 0.289388,0.26097 0.289388,0.77773 v 1.74666 h -1.979207 q -0.415995,0 -0.640788,-0.20929 -0.222209,-0.20929 -0.222209,-0.59428 0,-0.47542 0.255799,-0.68212 0.258382,-0.20671 0.855245,-0.20671 h 0.968933 v -0.0698 q 0,-0.24805 -0.147278,-0.34882 -0.144694,-0.10077 -0.519348,-0.10077 h -1.229899 z"
         style="stroke-width:0.26458332px"
         id="path829"
         inkscape:connector-curvature="0" />
      <path
         d="m 81.838119,108.74941 h 0.731222 v 1.01027 h 0.653707 q 0.614949,0 0.888834,0.24288 0.276469,0.24029 0.276469,0.77773 v 1.76733 h -0.741556 v -1.68207 q 0,-0.2868 -0.105937,-0.39015 -0.103353,-0.10336 -0.38499,-0.10336 h -0.586527 v 2.17558 h -0.731222 z"
         style="stroke-width:0.26458332px"
         id="path831"
         inkscape:connector-curvature="0" />
      <path
         d="m 86.057501,111.98693 h 0.922425 v -0.57619 h -0.868164 q -0.258382,0 -0.356568,0.0698 -0.09819,0.0698 -0.09819,0.24288 0,0.14728 0.07751,0.20671 0.0801,0.0568 0.322977,0.0568 z m -0.979268,-2.22725 h 1.508952 q 0.571024,0 0.860412,0.26355 0.289388,0.26097 0.289388,0.77773 v 1.74666 h -1.979207 q -0.415995,0 -0.640788,-0.20929 -0.222208,-0.20929 -0.222208,-0.59428 0,-0.47542 0.255798,-0.68212 0.258382,-0.20671 0.855245,-0.20671 h 0.968933 v -0.0698 q 0,-0.24805 -0.147278,-0.34882 -0.144694,-0.10077 -0.519348,-0.10077 h -1.229899 z"
         style="stroke-width:0.26458332px"
         id="path833"
         inkscape:connector-curvature="0" />
      <path
         d="m 88.336431,111.96626 h 1.552877 q 0.206705,0 0.299723,-0.0646 0.0956,-0.0646 0.0956,-0.20671 0,-0.14211 -0.0956,-0.2067 -0.0956,-0.0672 -0.299723,-0.0672 h -0.63562 q -0.565857,0 -0.764812,-0.17312 -0.198954,-0.17312 -0.198954,-0.61495 0,-0.44958 0.240295,-0.66146 0.240296,-0.21187 0.744141,-0.21187 h 1.581299 v 0.58136 h -1.299662 q -0.31781,0 -0.413412,0.0568 -0.0956,0.0543 -0.0956,0.19637 0,0.12919 0.08268,0.19121 0.08527,0.0594 0.266134,0.0594 h 0.666626 q 0.457336,0 0.697631,0.21446 0.240296,0.21187 0.240296,0.61495 0,0.38757 -0.214457,0.63045 -0.211874,0.24288 -0.54777,0.24288 H 88.33643 Z"
         style="stroke-width:0.26458332px"
         id="path835"
         inkscape:connector-curvature="0" />
    </g>
  </g>
</svg>
